<svg xmlns="http://www.w3.org/2000/svg" width="38" height="38" xml:space="preserve"><path fill="#F7C819" d="M19,35.896c-9.142,0-15.527-6.918-15.527-16.824C3.473,9.082,9.858,2.104,19,2.104	c9.143,0,15.527,6.978,15.527,16.968C34.527,28.979,28.143,35.896,19,35.896"/><path d="M19,3.354c7.107,0,14.277,4.86,14.277,15.718c0,10.759-7.17,15.573-14.277,15.573c-7.107,0-14.277-4.814-14.277-15.573	C4.723,8.215,11.893,3.354,19,3.354 M19,0.854c-9.072,0-16.777,6.625-16.777,18.218c0,11.448,7.705,18.073,16.777,18.073	c9.072,0,16.777-6.625,16.777-18.073C35.777,7.479,28.072,0.854,19,0.854"/></svg>